<svg width="32" height="44" viewBox="0 0 32 44" fill="none" xmlns="http://www.w3.org/2000/svg">
<path d="M9.25834 29.9119C12.7056 29.9119 15.5002 27.1174 15.5002 23.6701C15.5002 20.2228 12.7056 17.4282 9.25834 17.4282C5.81104 17.4282 3.01646 20.2228 3.01646 23.6701C3.01646 27.1174 5.81104 29.9119 9.25834 29.9119Z" stroke="white" stroke-width="4" stroke-linecap="round" stroke-linejoin="round"/>
<path d="M15.5006 23.6701V2.08803" stroke="white" stroke-width="4" stroke-linecap="round" stroke-linejoin="round"/>
<path d="M28.6485 14.5985C28.6485 12.0774 28.3897 9.61089 28.111 7.21942C27.8316 4.82133 25.9008 2.91281 23.5009 2.64913C20.9106 2.36452 18.2358 2.08803 15.5 2.08803" stroke="white" stroke-width="4" stroke-linecap="round"/>
<path d="M6.41764 35.086V40H5.22064V37.228L4.07964 40H3.19064L2.04964 37.228V40H0.852637V35.086H2.22464L3.63864 38.474L5.04564 35.086H6.41764ZM8.84182 35.982V37.039H10.4098V37.949H8.84182V39.09H10.6198V40H7.64482V35.072H10.6198V35.982H8.84182ZM13.0227 39.09H14.5137V40H11.8257V35.086H13.0227V39.09ZM17.5833 35.016C18.0453 35.016 18.4676 35.1233 18.8503 35.338C19.2376 35.5527 19.541 35.8513 19.7603 36.234C19.9843 36.6167 20.0963 37.0483 20.0963 37.529C20.0963 38.0097 19.9843 38.4437 19.7603 38.831C19.5363 39.2137 19.233 39.5123 18.8503 39.727C18.4676 39.9417 18.0453 40.049 17.5833 40.049C17.1213 40.049 16.6966 39.9417 16.3093 39.727C15.9266 39.5123 15.6233 39.2137 15.3993 38.831C15.1753 38.4437 15.0633 38.0097 15.0633 37.529C15.0633 37.0483 15.1753 36.6167 15.3993 36.234C15.6233 35.8513 15.9266 35.5527 16.3093 35.338C16.6966 35.1233 17.1213 35.016 17.5833 35.016ZM17.5833 36.115C17.1866 36.115 16.8693 36.2433 16.6313 36.5C16.398 36.7567 16.2813 37.0997 16.2813 37.529C16.2813 37.9583 16.398 38.3013 16.6313 38.558C16.8693 38.8147 17.1866 38.943 17.5833 38.943C17.9753 38.943 18.288 38.8147 18.5213 38.558C18.7593 38.3013 18.8783 37.9583 18.8783 37.529C18.8783 37.0997 18.7593 36.7567 18.5213 36.5C18.288 36.2433 17.9753 36.115 17.5833 36.115ZM25.4589 37.543C25.4589 38.019 25.3422 38.4437 25.1089 38.817C24.8802 39.1903 24.5606 39.482 24.1499 39.692C23.7439 39.8973 23.2842 40 22.7709 40H21.0419V35.086H22.7709C23.2889 35.086 23.7509 35.1887 24.1569 35.394C24.5629 35.5993 24.8802 35.8887 25.1089 36.262C25.3422 36.6353 25.4589 37.0623 25.4589 37.543ZM22.7709 39.09C23.2282 39.09 23.5876 38.95 23.8489 38.67C24.1102 38.39 24.2409 38.0143 24.2409 37.543C24.2409 37.0717 24.1102 36.696 23.8489 36.416C23.5876 36.136 23.2282 35.996 22.7709 35.996H22.2389V39.09H22.7709ZM30.5707 35.086L28.8697 38.418V40H27.6727V38.418L25.9717 35.086H27.3297L28.2747 37.305L29.2127 35.086H30.5707Z" fill="white"/>
</svg>
